<svg xmlns="http://www.w3.org/2000/svg" viewBox="0 0 128 128">
  <!-- BidMarket emblem: gavel + price tag/bid arrow -->
  <defs>
    <linearGradient id="bg" x1="0%" y1="0%" x2="100%" y2="100%">
      <stop offset="0%" stop-color="#0B0F16"/>
      <stop offset="100%" stop-color="#0A0D13"/>
    </linearGradient>
    <linearGradient id="mint" x1="0%" y1="0%" x2="100%" y2="100%">
      <stop offset="0%" stop-color="#5EF2C1"/>
      <stop offset="100%" stop-color="#23C69A"/>
    </linearGradient>
    <linearGradient id="gold" x1="0%" y1="0%" x2="100%" y2="100%">
      <stop offset="0%" stop-color="#F8E7B9"/>
      <stop offset="100%" stop-color="#D1A84A"/>
    </linearGradient>
  </defs>

  <rect width="128" height="128" rx="16" ry="16" fill="url(#bg)"/>

  <!-- Auction gavel -->
  <g transform="translate(20,22)">
    <rect x="14" y="54" width="68" height="10" rx="5" fill="#1E2632"/>
    <rect x="18" y="42" width="24" height="16" rx="4" fill="url(#gold)"/>
    <rect x="46" y="42" width="24" height="16" rx="4" fill="url(#gold)"/>
    <rect x="38" y="24" width="12" height="26" rx="4" fill="#C0902E"/>
    <rect x="24" y="70" width="56" height="6" rx="3" fill="#1E2632"/>
  </g>

  <!-- Bid arrow tag -->
  <g transform="translate(68,64) rotate(-12)">
    <path d="M0 0h34l10 10-10 10H0z" fill="url(#mint)"/>
    <path d="M22 6l6 6-6 6" fill="none" stroke="#083B2E" stroke-width="3" stroke-linecap="round" stroke-linejoin="round"/>
  </g>

  <!-- Accent ring -->
  <rect x="6" y="6" width="116" height="116" rx="14" ry="14" fill="none" stroke="url(#mint)" stroke-width="2"/>
</svg>


